<?xml version="1.0" encoding="utf-8"?>
<!-- Generator: Adobe Illustrator 23.0.1, SVG Export Plug-In . SVG Version: 6.00 Build 0)  -->
<svg version="1.1" id="Capa_1" xmlns="http://www.w3.org/2000/svg" xmlns:xlink="http://www.w3.org/1999/xlink" x="0px" y="0px"
	 viewBox="0 0 512 512" style="enable-background:new 0 0 512 512;" xml:space="preserve">
<style type="text/css">
	.st0{fill:#FFFFFF;}
	.st1{fill:#716C6C;}
</style>
<g>
	<path class="st0" d="M256,89.5c-47.2,0-97.9-12.3-97.9-39.4c0-27.1,50.8-39.4,97.9-39.4c47.2,0,97.9,12.3,97.9,39.4
		C353.9,77.2,303.2,89.5,256,89.5z M256,31c-43.4,0-67.8,10.2-74.6,15.6l-4.5,3.5l4.5,3.5c6.9,5.4,31.3,15.6,74.6,15.6
		c43.4,0,67.8-10.2,74.6-15.6l4.5-3.5l-4.5-3.5C323.8,41.2,299.4,31,256,31z"/>
	<path class="st1" d="M256,15.2c26,0,49.9,3.6,67.2,10c12,4.5,26.2,12.4,26.2,24.9S335.2,70.6,323.2,75C305.9,81.5,282,85,256,85
		s-49.9-3.6-67.2-10c-12-4.5-26.2-12.4-26.2-24.9s14.3-20.4,26.2-24.9C206.1,18.8,230,15.2,256,15.2 M256,73.8
		c44.5,0,69.6-10.4,77.4-16.6l9-7.1l-9-7.1c-7.8-6.2-32.9-16.6-77.4-16.6c-44.5,0-69.6,10.4-77.4,16.6l-9,7.1l9,7.1
		C186.4,63.4,211.5,73.8,256,73.8 M256,6.2c-51,0-102.4,13.6-102.4,43.9S205,94,256,94s102.4-13.6,102.4-43.9S307,6.2,256,6.2
		L256,6.2z M256,64.8c-40.5,0-65-9.2-71.8-14.6c6.9-5.4,31.4-14.6,71.8-14.6c40.5,0,65,9.2,71.8,14.6C321,55.5,296.5,64.8,256,64.8
		L256,64.8z"/>
</g>
<g>
	<path class="st0" d="M460.9,501.3c-37.6,0-72.4-22-88.6-56.1l-1.1-2.4l-2.6-0.2c-31.4-2.1-57.2-25.1-63-56l-0.6-3l-3-0.6
		c-16.8-3.2-31.9-12.7-42.4-26.9l-3.6-4.9l-3.6,4.9c-10.5,14.2-25.6,23.7-42.4,26.9l-3,0.6l-0.6,3c-5.7,30.9-31.6,53.9-63,56
		l-2.6,0.2l-1.1,2.4c-16.2,34.1-50.9,56.1-88.6,56.1c-3.2,0-6.3-1.6-8.2-4.2c-1.9-2.6-2.4-6-1.4-9.1
		c18.7-56.1,23.4-116.7,13.7-175.2c-4-25.2-6.9-42.5-9.1-55.1C42.1,233.8,41,227.4,41,216c0-34.1,13.2-66.1,37.3-90.3
		c1.1-0.9,2.3-2.1,3.8-3.8c7.2-7.6,22.1-23.4,48.9-23.4c26.6,0,50.1,17,58.5,42.2c9.1,27.3,34.5,45.6,63.3,45.6h6.3
		c28.8,0,54.2-18.3,63.3-45.6c8.4-25.2,31.9-42.2,58.5-42.2c16.5,0,32,6.4,43.6,18.1l8.9,8.9c24.2,24.2,37.5,56.3,37.5,90.5
		c0,11.3-1.1,17.5-5,40.7c-2.2,12.7-5.1,30.1-9.2,56c-9.8,58.5-5,119.1,13.7,175.2c1,3.1,0.5,6.5-1.4,9.1
		C467.2,499.7,464.1,501.3,460.9,501.3z M131,118.8c-18.2,0-28.2,10.7-34.2,17.1c-1.4,1.5-2.7,2.9-3.6,3.6l-0.2,0.2l-0.2,0.2
		c-20.3,20.3-31.5,47.4-31.5,76.1c0,9.5,0.8,14.2,4.6,36.5c2,11.9,5.1,30,9.4,56.9c9,53.9,6.3,110.2-7.9,163l-2.1,7.7l7.7-2.3
		c32.9-9.6,55.9-40.3,55.9-74.6v-88.8c0-5.6,4.5-10.1,10.1-10.1s10.1,4.5,10.1,10.1v88.8c0,3.9-0.2,7.9-0.7,11.8l-0.9,7.1l6.7-2.3
		c19.8-6.6,33.1-25.1,33.1-45.9v-89.8c0-5.6,4.5-10.1,10.1-10.1c5.6,0,10.1,4.5,10.1,10.1v78.9l6.1-2.3
		c19.3-7.2,32.2-25.9,32.2-46.4V206.4l-3.9-0.5c-33-4.1-61.1-27.2-71.6-58.8C164.7,130.2,148.9,118.8,131,118.8z M373.1,304.4
		c5.6,0,10.1,4.5,10.1,10.1v88.8c0,34.3,23,64.9,55.9,74.6l7.7,2.3l-2.1-7.7c-14.1-52.8-16.8-109.1-7.9-163
		c4.2-26.2,7.1-43.3,9.2-55.9c3.8-22.5,4.7-27.9,4.7-37.5c0-28.8-11.2-55.8-31.5-76.1l-8.9-8.9c-7.8-7.8-18.2-12.1-29.3-12.1
		c-17.9,0-33.7,11.4-39.3,28.3c-10.5,31.6-38.6,54.6-71.6,58.8l-3.9,0.5v108.1c0,20.5,12.9,39.2,32.2,46.4l6.1,2.3v-78.9
		c0-5.6,4.5-10.1,10.1-10.1s10.1,4.5,10.1,10.1v89.8c0,20.8,13.3,39.3,33.1,45.9l6.7,2.3l-0.9-7.1c-0.5-3.9-0.7-7.9-0.7-11.8v-88.8
		C362.9,309,367.5,304.4,373.1,304.4z"/>
	<path class="st1" d="M381,103c15.3,0,29.6,6,40.5,16.8l8.9,8.9c23.3,23.3,36.2,54.3,36.2,87.3c0,10.9-0.9,16.5-4.9,39.9
		c-2.2,12.7-5.1,30.1-9.2,56c-9.9,59.3-5.1,120.6,13.8,177.4c0.6,1.7,0.3,3.6-0.8,5.1c-1.1,1.5-2.8,2.3-4.6,2.3
		c-18,0-35.5-5.2-50.6-14.9c-14.7-9.5-26.4-22.9-33.9-38.7l-2.3-4.8l-5.3-0.3c-14.2-0.9-27.8-6.7-38.5-16.2
		c-10.6-9.5-17.8-22.3-20.4-36.1l-1.1-6.1l-6.1-1.1c-15.7-3-29.8-11.9-39.6-25.1l-7.2-9.7l-7.2,9.7c-9.8,13.2-23.9,22.2-39.6,25.1
		l-6.1,1.1l-1.1,6.1c-2.6,13.8-9.8,26.6-20.4,36.1c-10.6,9.5-24.3,15.3-38.5,16.2l-5.3,0.3l-2.3,4.8c-7.5,15.8-19.2,29.1-33.9,38.7
		c-15.1,9.8-32.6,14.9-50.6,14.9c-1.8,0-3.5-0.9-4.6-2.3c-1.1-1.5-1.3-3.4-0.8-5.1C64.7,432.6,69.5,371.3,59.6,312
		c-4-25.2-6.9-42.5-9.1-55.1c-4-23.6-5.1-29.9-5.1-40.9c0-32.8,12.7-63.6,35.8-86.9c1.2-1,2.5-2.3,4.1-4c7.3-7.7,20.8-22,45.7-22
		c24.7,0,46.5,15.7,54.3,39.1c9.7,29.1,36.8,48.7,67.5,48.7h6.3c30.7,0,57.8-19.6,67.5-48.7C334.5,118.8,356.3,103,381,103
		 M58.8,486.7l15.4-4.5c34.8-10.2,59.1-42.6,59.1-78.9v-88.8c0-3.1,2.5-5.6,5.6-5.6s5.6,2.5,5.6,5.6v88.8c0,3.7-0.2,7.5-0.7,11.3
		l-1.7,14.1l13.5-4.5c21.6-7.2,36.2-27.4,36.2-50.2v-89.8c0-3.1,2.5-5.6,5.6-5.6c3.1,0,5.6,2.5,5.6,5.6v72.5v13l12.2-4.6
		c21-7.9,35.1-28.2,35.1-50.6V210.4v-7.9l-7.9-1c-15.4-1.9-29.8-8.1-41.8-17.9c-12.1-9.9-21.1-23-26-37.8
		c-6.3-18.8-23.8-31.4-43.6-31.4c-20.1,0-31.4,12.1-37.5,18.5c-1.2,1.3-2.5,2.6-3.1,3.1l-0.4,0.3l-0.4,0.4
		C68.4,157.9,56.7,186,56.7,216c0,9.9,0.8,14.6,4.6,37.2c2,11.9,5.1,29.9,9.4,56.9l0,0l0,0c8.9,53.2,6.2,108.9-7.8,161.1L58.8,486.7
		 M308.9,369.7v-13v-72.5c0-3.1,2.5-5.6,5.6-5.6s5.6,2.5,5.6,5.6v89.8c0,22.8,14.5,42.9,36.2,50.2l13.5,4.5l-1.7-14.1
		c-0.5-3.8-0.7-7.6-0.7-11.3v-88.8c0-3.1,2.5-5.6,5.6-5.6c3.1,0,5.6,2.5,5.6,5.6v88.8c0,36.2,24.3,68.7,59.1,78.9l15.4,4.5
		l-4.1-15.5c-14-52.2-16.6-107.9-7.8-161.1l0,0l0,0c4.2-26.1,7.1-43.3,9.2-55.8c3.9-22.8,4.8-28.3,4.8-38.3
		c0-30-11.7-58.1-32.8-79.3l-8.9-8.9c-8.7-8.7-20.2-13.5-32.5-13.5c-19.8,0-37.3,12.6-43.6,31.4c-5,14.9-14,27.9-26.1,37.8
		c-12,9.8-26.5,16-41.8,17.9l-7.9,1v7.9v104.1c0,22.4,14.1,42.8,35.1,50.6L308.9,369.7 M381,94c-28.5,0-53.8,18.2-62.8,45.3
		c-8.5,25.4-32.2,42.5-59,42.5c-0.1,0-6.3,0-6.3,0s0,0,0,0c-26.8,0-50.5-17.1-59-42.5c-9-27.1-34.3-45.3-62.8-45.3
		c-34.7,0-50.8,24.7-55.8,28.3c-25,25-38.8,58.3-38.8,93.6c0,18,2.7,24.6,14.3,97.4h0c9.6,57.8,5,117.6-13.5,173.1
		c-1.5,4.5-0.7,9.4,2,13.2c2.8,3.8,7.2,6.1,11.9,6.1c40.9,0,76.2-24,92.6-58.7c33.6-2.2,61.1-27.2,67.1-59.6
		c18.1-3.4,34.1-13.7,45.2-28.6c11.1,14.9,27,25.2,45.2,28.6c6,32.4,33.5,57.4,67.1,59.6c16.4,34.7,51.8,58.7,92.6,58.7
		c4.7,0,9.1-2.3,11.9-6.1c2.8-3.8,3.5-8.7,2-13.2c-18.5-55.4-23.1-115.2-13.5-173.1c11.8-74.4,14.2-79.5,14.2-97.4
		c0-35.4-13.8-68.6-38.8-93.6l-8.9-8.9C415.3,100.9,398.7,94,381,94L381,94z M71.7,473.6C86,420,88.7,363.5,79.6,308.7
		c-12-75.5-13.9-78.4-13.9-92.7c0-27.6,10.7-53.5,30.2-72.9c5.7-4.5,14.4-19.8,35.1-19.8c15.9,0,30,10.2,35,25.3
		c11.2,33.7,40.7,57.5,75.3,61.8v104.1c0,19.1-12.4,35.9-29.3,42.2v-72.5c0-8.1-6.6-14.6-14.6-14.6c-8.1,0-14.6,6.6-14.6,14.6v89.8
		c0,19.4-12.6,35.8-30,41.6c0.5-4.1,0.7-8.2,0.7-12.4v-88.8c0-8.1-6.6-14.6-14.6-14.6c-8.1,0-14.6,6.6-14.6,14.6v88.8
		C124.3,436.5,102,464.7,71.7,473.6L71.7,473.6z M299.9,356.7c-16.9-6.3-29.3-23.1-29.3-42.2V210.4c34.6-4.3,64.1-28.1,75.3-61.8
		c5-15.1,19.1-25.3,35-25.3c9.9,0,19.1,3.8,26.1,10.8l8.9,8.9c19.5,19.5,30.2,45.4,30.2,72.9c0,14.3-2.1,19-13.9,92.6
		c-9.1,54.9-6.4,111.4,7.9,164.9c-30.4-8.9-52.6-37-52.6-70.2v-88.8c0-8.1-6.6-14.6-14.6-14.6c-8.1,0-14.6,6.6-14.6,14.6v88.8
		c0,4.2,0.3,8.3,0.7,12.4c-17.4-5.8-30-22.3-30-41.6v-89.8c0-8.1-6.6-14.6-14.6-14.6c-8.1,0-14.6,6.6-14.6,14.6V356.7L299.9,356.7z"
		/>
</g>
</svg>
