<?xml version="1.0" encoding="utf-8"?>
<!-- Generator: Adobe Illustrator 23.0.1, SVG Export Plug-In . SVG Version: 6.00 Build 0)  -->
<svg version="1.1" id="Layer_1" xmlns="http://www.w3.org/2000/svg" xmlns:xlink="http://www.w3.org/1999/xlink" x="0px" y="0px"
	 viewBox="0 0 16 16" style="enable-background:new 0 0 16 16;" xml:space="preserve">
<style type="text/css">
	.st0{fill:url(#SVGID_1_);}
	.st1{fill:url(#SVGID_2_);}
	.st2{fill:url(#SVGID_3_);}
	.st3{fill:url(#SVGID_4_);}
	.st4{fill:url(#SVGID_5_);}
	.st5{fill:url(#SVGID_6_);}
	.st6{fill:url(#SVGID_7_);}
	.st7{fill:url(#SVGID_8_);}
	.st8{fill:url(#SVGID_9_);}
	.st9{fill:url(#SVGID_10_);}
	.st10{fill:url(#SVGID_11_);}
	.st11{fill:url(#SVGID_12_);}
	.st12{fill:url(#SVGID_13_);}
	.st13{fill:none;stroke:url(#SVGID_14_);stroke-miterlimit:10;}
	.st14{fill:none;stroke:url(#SVGID_15_);stroke-miterlimit:10;}
</style>
<g>
	<g>
		
			<linearGradient id="SVGID_1_" gradientUnits="userSpaceOnUse" x1="580.2792" y1="672.559" x2="593.7208" y2="672.559" gradientTransform="matrix(1 0 0 1 -579 -659)">
			<stop  offset="1.438503e-07" style="stop-color:#7A7777"/>
			<stop  offset="0.3674" style="stop-color:#A4A08C"/>
			<stop  offset="1" style="stop-color:#F4EFB3"/>
		</linearGradient>
		<path class="st0" d="M14.72,14.44c-0.96,0.76-1.99,1.04-2.98,0.89c-1.41-0.21-2.74-1.28-3.73-3.06c-0.99,1.79-2.33,2.88-3.75,3.09
			c-0.99,0.15-2.01-0.13-2.98-0.89c0,0,0.36-0.83,0.95-1.59c0.79,0.57,1.64,0.84,2.49,0.8c0.12,0,0.24-0.02,0.36-0.04
			c0.06-0.01,0.12-0.02,0.18-0.04c0.04,0,0.09-0.01,0.13-0.03c0.09-0.02,0.18-0.05,0.26-0.08c0.06-0.02,0.12-0.04,0.18-0.07
			c0.08-0.03,0.15-0.06,0.22-0.09c0.07-0.03,0.15-0.07,0.22-0.11c0.08-0.04,0.17-0.09,0.25-0.14c0.06-0.04,0.12-0.08,0.19-0.12
			c0.06-0.04,0.12-0.08,0.18-0.13c0.06-0.05,0.12-0.1,0.19-0.15c0.01,0,0.02-0.01,0.03-0.02c0.06-0.06,0.13-0.11,0.2-0.17
			c0.07-0.07,0.14-0.13,0.2-0.19c0.06-0.06,0.11-0.11,0.17-0.17c0.02-0.01,0.03-0.03,0.05-0.05c0.04-0.04,0.08-0.09,0.12-0.14l0,0
			c-0.01-0.01-0.01-0.02-0.02-0.03c0.02-0.01,0.03-0.03,0.05-0.05c0.03-0.03,0.07-0.07,0.1-0.11c0.01-0.01,0.02-0.02,0.03-0.03
			c0,0,0.01-0.01,0.01-0.01c0,0,0,0,0.01,0.01c0.03,0.04,0.06,0.08,0.09,0.11c0.03,0.03,0.06,0.07,0.08,0.1
			c0.03,0.04,0.06,0.08,0.1,0.11c0.02,0.01,0.03,0.03,0.05,0.05c0.06,0.06,0.11,0.12,0.17,0.17c0.07,0.07,0.14,0.13,0.2,0.19
			c0.06,0.06,0.13,0.12,0.2,0.17c0.01,0.01,0.02,0.01,0.03,0.02c0.06,0.05,0.12,0.1,0.19,0.15c0.06,0.04,0.12,0.09,0.18,0.13
			c0.06,0.04,0.12,0.08,0.19,0.12c0.08,0.05,0.17,0.1,0.25,0.15c0.07,0.04,0.15,0.08,0.22,0.11c0.08,0.03,0.15,0.07,0.22,0.09
			c0.06,0.02,0.12,0.05,0.18,0.07c0.09,0.03,0.18,0.06,0.26,0.08c0.04,0.01,0.08,0.02,0.13,0.03c0.06,0.01,0.12,0.03,0.18,0.04
			c0.12,0.02,0.24,0.03,0.36,0.04c0.85,0.05,1.7-0.23,2.49-0.8C14.36,13.61,14.72,14.44,14.72,14.44z"/>
		
			<linearGradient id="SVGID_2_" gradientUnits="userSpaceOnUse" x1="579.03" y1="670.5211" x2="586.8331" y2="670.5211" gradientTransform="matrix(1 0 0 1 -579 -659)">
			<stop  offset="1.438503e-07" style="stop-color:#7A7777"/>
			<stop  offset="0.3674" style="stop-color:#A4A08C"/>
			<stop  offset="1" style="stop-color:#F4EFB3"/>
		</linearGradient>
		<path class="st1" d="M7.83,11.94c-0.04,0.05-0.08,0.09-0.12,0.14c-0.02,0.01-0.03,0.03-0.05,0.05c-0.06,0.06-0.11,0.12-0.17,0.17
			c-0.07,0.07-0.14,0.13-0.2,0.19c-0.06,0.06-0.13,0.12-0.2,0.17c-0.01,0-0.02,0.01-0.03,0.02c-0.06,0.05-0.12,0.1-0.19,0.15
			c-0.06,0.04-0.12,0.09-0.18,0.13c-0.06,0.04-0.12,0.08-0.19,0.12c-0.08,0.05-0.17,0.1-0.25,0.14c-0.07,0.04-0.15,0.08-0.22,0.11
			c-0.08,0.04-0.15,0.07-0.22,0.09c-0.06,0.02-0.12,0.05-0.18,0.07c-0.09,0.03-0.18,0.05-0.26,0.08c-0.04,0.01-0.08,0.02-0.13,0.03
			c-0.06,0.01-0.12,0.03-0.18,0.04c-0.12,0.02-0.24,0.04-0.36,0.04c-0.85,0.05-1.7-0.23-2.49-0.8c-0.83-0.6-1.58-1.52-2.19-2.78
			c0,0,0.54-0.49,1.26-0.75c0.57,1.09,1.27,1.95,2.05,2.52c0.53,0.39,1.08,0.64,1.67,0.76c1-0.01,2.01-0.21,2.02-0.21
			c0.03-0.01,0.16-0.07,0.2-0.08c0.02-0.01,0.03-0.02,0.05-0.03c0.01,0,0.02-0.01,0.03-0.01c0.02-0.01,0.05-0.02,0.06-0.04
			c0.02-0.01,0.04-0.02,0.06-0.04c0.01,0,0.01-0.01,0.02-0.01c0.01-0.01,0.06-0.04,0.07-0.04c0.01,0,0.02-0.01,0.03-0.02
			c0.02-0.01,0.03-0.02,0.04-0.03c0.02-0.01,0.04-0.03,0.06-0.05c0.01,0,0.01,0,0.02-0.01c0,0,0,0,0,0
			c0.02-0.01,0.03-0.02,0.04-0.04c0.02-0.01,0.05-0.04,0.06-0.06c0,0,0.01-0.01,0.01-0.01c0.01-0.01,0.02-0.02,0.03-0.03
			C7.82,11.93,7.83,11.93,7.83,11.94z"/>
		
			<linearGradient id="SVGID_3_" gradientUnits="userSpaceOnUse" x1="-192.7764" y1="697.5523" x2="-187.742" y2="697.5523" gradientTransform="matrix(0.4231 -0.9061 0.9061 0.4231 -548.2354 -458.3318)">
			<stop  offset="1.438503e-07" style="stop-color:#7A7777"/>
			<stop  offset="0.3674" style="stop-color:#A4A08C"/>
			<stop  offset="1" style="stop-color:#F4EFB3"/>
		</linearGradient>
		<path class="st2" d="M2.55,9.26c0.54,1.04,1.2,1.89,1.97,2.47c0.2,0.16,0.41,0.3,0.62,0.41c0.08,0.04,0.17,0.09,0.26,0.13
			c0.09,0.04,0.17,0.08,0.26,0.11c0,0,0.01,0,0.01,0c0.01,0,0.01,0,0.02,0.01h0.01c0,0,0.05,0.01,0.06,0.02
			c0.03,0.01,0.06,0.02,0.08,0.03c0.01,0,0.02,0,0.03,0.01c0.01,0,0.01,0,0.02,0.01c0,0,0,0,0,0s0.02,0.01,0.02,0.01
			c0,0,0.08,0.01,0.08,0.01c0,0,0.02,0,0.02,0c0,0,0.08,0.02,0.11,0.02c0.01,0,0.1,0.01,0.1,0.01h0.02h0.02h0.02h0h0.01h0
			c0,0,0.05,0,0.05,0.01c0.03,0,0.08,0,0.08,0c0.02,0,0.05-0.01,0.05-0.01H6.5h0.04h0.02h0.02h0.02c0.03,0.01,0.05,0.01,0.08,0
			c0.01,0,0.04,0,0.04-0.01c0.01,0,0.02,0,0.02,0c0.01,0,0.06-0.01,0.07-0.01c0.02,0,0.03,0,0.04-0.01c0.01,0,0.03-0.01,0.04-0.01
			c0.01,0,0.01,0,0.02,0c0.02,0,0.05-0.01,0.07-0.02C6.3,12.7,5.64,12.76,5,12.64c-0.58-0.11-1.14-0.37-1.67-0.76
			c-0.78-0.57-1.48-1.44-2.05-2.52C0.69,8.22,0.24,6.83,0,5.25c0,0,0.61-0.06,1.33,0.24C1.58,6.89,2,8.18,2.55,9.26z"/>
		
			<linearGradient id="SVGID_4_" gradientUnits="userSpaceOnUse" x1="-192.2249" y1="696.289" x2="-183.6626" y2="696.289" gradientTransform="matrix(0.4231 -0.9061 0.9061 0.4231 -548.2354 -458.3318)">
			<stop  offset="1.438503e-07" style="stop-color:#7A7777"/>
			<stop  offset="0.3674" style="stop-color:#A4A08C"/>
			<stop  offset="1" style="stop-color:#F4EFB3"/>
		</linearGradient>
		<path class="st3" d="M3.52,5.41c0.03,0.41,0.02,0.84-0.03,1.31C3.44,7.15,3.43,7.58,3.45,7.99c0,0.07,0.01,0.14,0.01,0.21
			c0,0.01,0,0.03,0,0.04c0,0.08,0.01,0.14,0.02,0.21C3.49,8.53,3.5,8.6,3.51,8.67c0,0.02,0.01,0.06,0.01,0.08
			c0.01,0.04,0.01,0.08,0.02,0.12c0,0,0,0,0,0.01c0,0,0,0.01,0,0.01c0.01,0.04,0.01,0.08,0.02,0.13c0.01,0.05,0.02,0.09,0.03,0.14
			c0,0.01,0,0.02,0,0.03c0.01,0.06,0.02,0.11,0.03,0.16c0.01,0.02,0.01,0.05,0.02,0.08c0.01,0.05,0.03,0.1,0.04,0.15
			c0,0.02,0.01,0.04,0.02,0.06c0.01,0.02,0.01,0.04,0.02,0.07c0.01,0.04,0.02,0.08,0.03,0.12C3.76,9.89,3.78,9.94,3.8,9.99
			c0,0.01,0.01,0.02,0.01,0.02c0.01,0.01,0.01,0.03,0.02,0.05c0,0.01,0.01,0.02,0.01,0.03c0.01,0.02,0.02,0.05,0.02,0.07
			c0,0.01,0.01,0.02,0.01,0.03c0,0.01,0.01,0.02,0.01,0.03c0,0,0,0,0,0.01c0,0,0,0,0,0.01c0,0.01,0.01,0.02,0.01,0.03
			c0,0,0,0,0,0.01c0.01,0.03,0.02,0.06,0.03,0.08s0.02,0.06,0.04,0.09c0.03,0.06,0.05,0.12,0.08,0.18c0.01,0.02,0.02,0.04,0.03,0.07
			c0.01,0.02,0.03,0.05,0.04,0.08c0,0,0,0,0,0.01c0,0,0,0.01,0.01,0.01l0,0c0,0,0,0,0,0l0,0c0,0,0,0.01,0,0.01l0,0c0,0,0,0,0,0.01
			c0.02,0.03,0.03,0.06,0.05,0.09c0.01,0.02,0.02,0.04,0.03,0.07c0,0,0,0.01,0.01,0.01c0,0.01,0.01,0.01,0.01,0.02
			c0.01,0.01,0.02,0.02,0.02,0.04c0.01,0.01,0.01,0.02,0.02,0.03c0,0,0,0,0,0.01c0,0.01,0.01,0.02,0.02,0.02l0,0
			c0,0,0,0.01,0.01,0.01c0,0,0,0,0,0.01c0,0,0,0.01,0.01,0.01c0.01,0.01,0.01,0.02,0.02,0.03c0.01,0.01,0.01,0.01,0.02,0.02l0,0
			c0,0.01,0.01,0.01,0.02,0.02c0,0,0,0,0.01,0.01c0,0,0.01,0.01,0.01,0.01c0.01,0.01,0.02,0.03,0.03,0.05s0.02,0.03,0.03,0.04
			c0.01,0.01,0.02,0.02,0.03,0.04c0,0,0,0.01,0.01,0.01c0,0.01,0.01,0.01,0.02,0.02c0.01,0.01,0.02,0.02,0.03,0.04
			c0.01,0.01,0.01,0.01,0.02,0.02c0,0,0,0,0.01,0.01c0.01,0.01,0.02,0.02,0.03,0.04c0.01,0.01,0.02,0.02,0.03,0.03
			c0.02,0.03,0.04,0.06,0.06,0.09c0.01,0.01,0.02,0.01,0.02,0.02c0.01,0,0.01,0.01,0.02,0.02c0.01,0.01,0.02,0.02,0.03,0.03
			c0.01,0,0.01,0.01,0.02,0.02c0.01,0.01,0.01,0.01,0.02,0.02c0.02,0.01,0.03,0.03,0.05,0.05c0.01,0.01,0.02,0.02,0.03,0.03
			c0.01,0,0.01,0.01,0.02,0.02c0,0,0,0,0.01,0.01c0.01,0,0.01,0.01,0.02,0.02l0,0c0,0,0.01,0.01,0.01,0.01
			c0.01,0.01,0.03,0.02,0.04,0.04l0.01,0c0.02,0.02,0.03,0.03,0.05,0.05c0.01,0.01,0.03,0.02,0.04,0.04l0.02,0.02c0,0,0,0,0.01,0h0
			h0c0,0,0.01,0.01,0.01,0.01l0.02,0.01c0.01,0,0.01,0.01,0.02,0.01c0.01,0,0.01,0.01,0.02,0.02c0.01,0,0.02,0.01,0.02,0.02
			l0.02,0.01l-0.02,0.07c-0.21-0.12-0.42-0.25-0.62-0.41c-0.76-0.59-1.43-1.44-1.97-2.47C1.99,8.24,1.57,6.96,1.33,5.57
			C1.21,4.9,1.14,4.21,1.11,3.5C1.05,2.64,1.08,1.78,1.17,0.91C1.17,0.92,3.31,2.4,3.52,5.41z"/>
		
			<linearGradient id="SVGID_5_" gradientUnits="userSpaceOnUse" x1="587.0019" y1="670.5423" x2="594.9625" y2="670.5423" gradientTransform="matrix(1 0 0 1 -579 -659)">
			<stop  offset="1.438503e-07" style="stop-color:#7A7777"/>
			<stop  offset="0.3674" style="stop-color:#A4A08C"/>
			<stop  offset="1" style="stop-color:#F4EFB3"/>
		</linearGradient>
		<path class="st4" d="M15.96,10.13c-0.62,1.25-1.37,2.18-2.19,2.78c-0.79,0.57-1.64,0.84-2.49,0.8c-0.12-0.01-0.24-0.02-0.36-0.04
			c-0.06-0.01-0.12-0.02-0.18-0.04c-0.04-0.01-0.09-0.02-0.13-0.03c-0.09-0.02-0.18-0.05-0.26-0.08c-0.06-0.02-0.12-0.04-0.18-0.07
			c-0.08-0.03-0.15-0.06-0.22-0.09c-0.07-0.03-0.15-0.07-0.22-0.11c-0.08-0.04-0.17-0.09-0.25-0.15c-0.06-0.04-0.12-0.08-0.19-0.12
			c-0.06-0.04-0.12-0.08-0.18-0.13c-0.06-0.05-0.12-0.1-0.19-0.15c-0.01,0-0.02-0.01-0.03-0.02c-0.06-0.06-0.13-0.11-0.2-0.17
			c-0.07-0.06-0.14-0.13-0.2-0.19c-0.06-0.06-0.11-0.11-0.17-0.17c-0.02-0.01-0.03-0.03-0.05-0.05c-0.03-0.04-0.06-0.08-0.1-0.11
			c-0.03-0.03-0.06-0.07-0.08-0.1c-0.03-0.04-0.06-0.08-0.09-0.11c0,0,0,0-0.01-0.01c0,0,0.01,0,0.01-0.01c0,0,0,0,0,0
			c0,0,0,0,0.01,0.01c0.03,0.04,0.07,0.08,0.1,0.11c0.02,0.02,0.05,0.05,0.08,0.07c0,0,0.01,0,0.01,0.01c0,0,0.01,0.01,0.01,0.01
			c0.02,0.02,0.05,0.04,0.06,0.06c0.02,0.01,0.03,0.02,0.04,0.04c0,0,0,0,0,0c0,0,0.01,0.01,0.02,0.01
			c0.02,0.01,0.04,0.03,0.06,0.05c0.01,0.01,0.03,0.02,0.04,0.03c0.01,0.01,0.02,0.02,0.03,0.02c0.01,0,0.03,0.02,0.03,0.02
			c0.01,0.01,0.03,0.02,0.04,0.02c0.01,0,0.01,0,0.02,0.01c0.02,0.02,0.04,0.03,0.06,0.04c0.02,0.01,0.05,0.02,0.06,0.04
			c0.01,0.01,0.02,0.01,0.03,0.01c0.02,0.01,0.03,0.02,0.05,0.03c0.04,0.02,0.17,0.08,0.2,0.08c0.01,0,1.38,0.33,2.02,0.21
			c0.58-0.11,1.14-0.37,1.67-0.76c0.78-0.57,1.48-1.44,2.05-2.52C15.43,9.64,15.96,10.13,15.96,10.13z"/>
		
			<linearGradient id="SVGID_6_" gradientUnits="userSpaceOnUse" x1="-538.8004" y1="-43.2846" x2="-533.6574" y2="-43.2846" gradientTransform="matrix(-0.4231 -0.9061 -0.9061 0.4231 -253.4551 -458.3318)">
			<stop  offset="1.438503e-07" style="stop-color:#7A7777"/>
			<stop  offset="0.3674" style="stop-color:#A4A08C"/>
			<stop  offset="1" style="stop-color:#F4EFB3"/>
		</linearGradient>
		<path class="st5" d="M13.45,9.22c-0.54,1.04-1.2,1.89-1.97,2.47c-0.2,0.16-0.41,0.3-0.62,0.41c-0.08,0.04-0.17,0.09-0.26,0.13
			c-0.09,0.04-0.17,0.08-0.26,0.11c0,0-0.01,0-0.01,0c-0.01,0-0.01,0-0.02,0.01l-0.01,0c0,0,0,0-0.01,0s0,0,0,0
			c0,0-0.04,0.01-0.05,0.01c-0.03,0.01-0.06,0.02-0.08,0.03c-0.01,0-0.02,0-0.03,0.01c-0.01,0-0.01,0-0.02,0.01c0,0-0.02,0-0.03,0
			c0,0-0.08,0.01-0.08,0.01c0,0-0.1,0.02-0.14,0.03c-0.01,0-0.21,0.02-0.21,0.02c-0.03,0-0.08,0-0.08,0c-0.02,0-0.23,0-0.25-0.01
			c-0.01,0-0.04,0-0.04-0.01c-0.01,0-0.02,0-0.02,0c-0.01,0-0.06-0.01-0.07-0.01c-0.02,0-0.03,0-0.04-0.01
			c-0.01,0-0.03-0.01-0.04-0.01c-0.01,0-0.01,0-0.02,0c-0.02,0-0.09,0.2-0.11,0.19c0.66,0.25,1.38,0.19,2.01,0.07
			c0.62-0.07,0.98-0.28,1.7-0.86c0.78-0.57,1.43-1.43,2-2.52c0.6-1.14,1.05-2.53,1.29-4.1c0,0-0.61-0.06-1.33,0.24
			C14.42,6.85,14,8.14,13.45,9.22z"/>
		
			<linearGradient id="SVGID_7_" gradientUnits="userSpaceOnUse" x1="-538.2124" y1="-44.6558" x2="-529.6534" y2="-44.6558" gradientTransform="matrix(-0.4231 -0.9061 -0.9061 0.4231 -253.4551 -458.3318)">
			<stop  offset="1.438503e-07" style="stop-color:#7A7777"/>
			<stop  offset="0.3674" style="stop-color:#A4A08C"/>
			<stop  offset="1" style="stop-color:#F4EFB3"/>
		</linearGradient>
		<path class="st6" d="M12.56,5.41c-0.03,0.41-0.02,0.84,0.03,1.31c0.05,0.43,0.06,0.86,0.05,1.28c0,0.07-0.01,0.14-0.01,0.21
			c0,0.01,0,0.03,0,0.04c0,0.08-0.01,0.14-0.02,0.21c-0.01,0.08-0.02,0.15-0.03,0.22c0,0.02-0.01,0.06-0.01,0.08
			c-0.01,0.04-0.01,0.08-0.02,0.12c0,0,0,0,0,0.01c0,0,0,0.01,0,0.01c-0.01,0.04-0.01,0.08-0.02,0.13
			c-0.01,0.05-0.02,0.09-0.03,0.14c0,0.01,0,0.02,0,0.03c-0.01,0.06-0.02,0.11-0.03,0.16c-0.01,0.02-0.01,0.05-0.02,0.08
			c-0.01,0.05-0.03,0.1-0.04,0.15c0,0.02-0.01,0.04-0.02,0.06c-0.01,0.02-0.01,0.04-0.02,0.07c-0.01,0.04-0.02,0.08-0.03,0.12
			c-0.02,0.06-0.03,0.11-0.05,0.16c0,0.01-0.01,0.02-0.01,0.02c-0.01,0.01-0.01,0.03-0.02,0.05c0,0.01-0.01,0.02-0.01,0.03
			c-0.01,0.02-0.02,0.05-0.02,0.07c0,0.01-0.01,0.02-0.01,0.03c0,0.01-0.01,0.02-0.01,0.03c0,0,0,0,0,0.01c0,0,0,0,0,0.01
			c0,0.01-0.01,0.02-0.01,0.03c0,0,0,0,0,0.01c-0.01,0.03-0.02,0.06-0.03,0.08c-0.01,0.03-0.02,0.06-0.04,0.09
			c-0.03,0.06-0.05,0.12-0.08,0.18c-0.01,0.02-0.02,0.04-0.03,0.07c-0.01,0.02-0.03,0.05-0.04,0.08c0,0,0,0,0,0.01
			c0,0,0,0.01-0.01,0.01l0,0c0,0,0,0,0,0l0,0c0,0,0,0.01,0,0.01l0,0c0,0,0,0,0,0.01c-0.02,0.03-0.03,0.06-0.05,0.09
			c-0.01,0.02-0.02,0.04-0.03,0.07c0,0,0,0.01-0.01,0.01c0,0.01-0.01,0.01-0.01,0.02c-0.01,0.01-0.02,0.02-0.02,0.04
			c-0.01,0.01-0.01,0.02-0.02,0.03c0,0,0,0,0,0.01c0,0.01-0.01,0.02-0.02,0.02l0,0c0,0,0,0.01-0.01,0.01c0,0,0,0,0,0.01
			c0,0,0,0.01-0.01,0.01c-0.01,0.01-0.01,0.02-0.02,0.03c-0.01,0.01-0.01,0.01-0.02,0.02l0,0c0,0.01-0.01,0.01-0.02,0.02
			c0,0,0,0-0.01,0.01c0,0-0.01,0.01-0.01,0.01c-0.01,0.01-0.02,0.03-0.03,0.05c-0.01,0.02-0.02,0.03-0.03,0.04
			c-0.01,0.01-0.02,0.02-0.03,0.04c0,0,0,0.01-0.01,0.01c0,0.01-0.01,0.01-0.02,0.02c-0.01,0.01-0.02,0.02-0.03,0.04
			c-0.01,0.01-0.01,0.01-0.02,0.02c0,0,0,0-0.01,0.01c-0.01,0.01-0.02,0.02-0.03,0.04c-0.01,0.01-0.02,0.02-0.03,0.03
			c-0.02,0.03-0.04,0.06-0.06,0.09c-0.01,0.01-0.02,0.01-0.02,0.02c-0.01,0-0.01,0.01-0.02,0.02c-0.01,0.01-0.02,0.02-0.03,0.03
			c-0.01,0-0.01,0.01-0.02,0.02c-0.01,0.01-0.01,0.01-0.02,0.02c-0.02,0.01-0.03,0.03-0.05,0.05c-0.01,0.01-0.02,0.02-0.03,0.03
			c-0.01,0-0.01,0.01-0.02,0.02c0,0,0,0-0.01,0.01c-0.01,0-0.01,0.01-0.02,0.02l0,0c0,0-0.01,0.01-0.01,0.01
			c-0.01,0.01-0.03,0.02-0.04,0.04l-0.01,0c-0.02,0.02-0.03,0.03-0.05,0.05c-0.01,0.01-0.03,0.02-0.04,0.04l-0.02,0.02
			c0,0,0,0-0.01,0h0h0c0,0-0.01,0.01-0.01,0.01L11,12.08c-0.01,0-0.01,0.01-0.02,0.01c-0.01,0-0.01,0.01-0.02,0.02
			c-0.01,0-0.02,0.01-0.02,0.02l-0.02,0.01l0.02,0.07c0.21-0.12,0.42-0.25,0.62-0.41c0.76-0.59,1.43-1.44,1.97-2.47
			c0.56-1.08,0.98-2.37,1.22-3.76c0.12-0.67,0.19-1.36,0.22-2.07c0.03-0.84,0.01-1.7-0.09-2.57C14.91,0.92,12.77,2.39,12.56,5.41z"
			/>
		
			<linearGradient id="SVGID_8_" gradientUnits="userSpaceOnUse" x1="585.2274" y1="670.9114" x2="585.2274" y2="670.9114" gradientTransform="matrix(1 0 0 1 -579 -659)">
			<stop  offset="1.438503e-07" style="stop-color:#7A7777"/>
			<stop  offset="0.332" style="stop-color:#A3A1A1"/>
			<stop  offset="1" style="stop-color:#FFFFFF"/>
		</linearGradient>
		<path class="st7" d="M6.23,11.91"/>
		
			<linearGradient id="SVGID_9_" gradientUnits="userSpaceOnUse" x1="584.9948" y1="659.5958" x2="584.9948" y2="659.5958" gradientTransform="matrix(1 0 0 1 -579 -659)">
			<stop  offset="1.438503e-07" style="stop-color:#7A7777"/>
			<stop  offset="0.332" style="stop-color:#A3A1A1"/>
			<stop  offset="1" style="stop-color:#FFFFFF"/>
		</linearGradient>
		<path class="st8" d="M5.99,0.6"/>
	</g>
</g>
<linearGradient id="SVGID_10_" gradientUnits="userSpaceOnUse" x1="8" y1="8" x2="8" y2="8">
	<stop  offset="1.438503e-07" style="stop-color:#7A7777"/>
	<stop  offset="0.3674" style="stop-color:#A4A08C"/>
	<stop  offset="1" style="stop-color:#F4EFB3"/>
</linearGradient>
<path class="st9" d="M8,8"/>
<linearGradient id="SVGID_11_" gradientUnits="userSpaceOnUse" x1="8" y1="8" x2="8" y2="8">
	<stop  offset="1.438503e-07" style="stop-color:#7A7777"/>
	<stop  offset="0.3674" style="stop-color:#A4A08C"/>
	<stop  offset="1" style="stop-color:#F4EFB3"/>
</linearGradient>
<path class="st10" d="M8,8"/>
<linearGradient id="SVGID_12_" gradientUnits="userSpaceOnUse" x1="8" y1="8" x2="8" y2="8">
	<stop  offset="1.438503e-07" style="stop-color:#7A7777"/>
	<stop  offset="0.3674" style="stop-color:#A4A08C"/>
	<stop  offset="1" style="stop-color:#F4EFB3"/>
</linearGradient>
<line class="st11" x1="8" y1="8" x2="8" y2="8"/>
<linearGradient id="SVGID_13_" gradientUnits="userSpaceOnUse" x1="8" y1="8" x2="8" y2="8">
	<stop  offset="1.438503e-07" style="stop-color:#7A7777"/>
	<stop  offset="0.3674" style="stop-color:#A4A08C"/>
	<stop  offset="1" style="stop-color:#F4EFB3"/>
</linearGradient>
<path class="st12" d="M8,8"/>
<linearGradient id="SVGID_14_" gradientUnits="userSpaceOnUse" x1="7.8083" y1="8.4105" x2="8.1917" y2="7.5895">
	<stop  offset="1.438503e-07" style="stop-color:#7A7777"/>
	<stop  offset="0.3674" style="stop-color:#A4A08C"/>
	<stop  offset="1" style="stop-color:#F4EFB3"/>
</linearGradient>
<line class="st13" x1="8" y1="8" x2="8" y2="8"/>
<linearGradient id="SVGID_15_" gradientUnits="userSpaceOnUse" x1="8" y1="8" x2="8" y2="8">
	<stop  offset="1.438503e-07" style="stop-color:#7A7777"/>
	<stop  offset="0.3674" style="stop-color:#A4A08C"/>
	<stop  offset="1" style="stop-color:#F4EFB3"/>
</linearGradient>
<path class="st14" d="M8,8"/>
</svg>
