<?xml version="1.0" encoding="utf-8"?>
<!-- Generator: Adobe Illustrator 23.0.1, SVG Export Plug-In . SVG Version: 6.00 Build 0)  -->
<svg version="1.1" id="Layer_1" xmlns="http://www.w3.org/2000/svg" xmlns:xlink="http://www.w3.org/1999/xlink" x="0px" y="0px"
	 viewBox="0 0 50 50" style="enable-background:new 0 0 50 50;" xml:space="preserve">
<style type="text/css">
	.st0{fill:url(#SVGID_1_);}
	.st1{fill:url(#SVGID_2_);}
	.st2{fill:url(#SVGID_3_);}
	.st3{fill:url(#SVGID_4_);}
	.st4{fill:url(#SVGID_5_);}
	.st5{fill:url(#SVGID_6_);}
	.st6{fill:url(#SVGID_7_);}
	.st7{fill:url(#SVGID_8_);}
	.st8{fill:url(#SVGID_9_);}
</style>
<g>
	
		<linearGradient id="SVGID_1_" gradientUnits="userSpaceOnUse" x1="287.7897" y1="-306.0837" x2="323.6225" y2="-306.0837" gradientTransform="matrix(1 0 0 -1 -281 -271)">
		<stop  offset="1.438503e-07" style="stop-color:#7A7777"/>
		<stop  offset="0.3674" style="stop-color:#A4A08C"/>
		<stop  offset="1" style="stop-color:#F4EFB3"/>
	</linearGradient>
	<path class="st0" d="M42.62,36.94c-2.57,1.62-5.3,2.21-7.94,1.9c-3.75-0.45-7.31-2.73-9.95-6.5c-2.64,3.81-6.22,6.12-10,6.57
		c-2.64,0.32-5.37-0.27-7.94-1.9c0,0,0.96-1.76,2.54-3.38c2.11,1.22,4.37,1.79,6.64,1.69c0.32-0.01,0.65-0.04,0.97-0.09
		c0.16-0.02,0.32-0.04,0.49-0.08c0.11-0.01,0.23-0.03,0.34-0.06c0.23-0.05,0.47-0.1,0.7-0.16c0.16-0.04,0.33-0.09,0.49-0.14
		c0.2-0.06,0.39-0.13,0.59-0.2c0.19-0.07,0.39-0.14,0.58-0.23c0.22-0.09,0.44-0.19,0.66-0.3c0.17-0.08,0.33-0.16,0.5-0.25
		c0.16-0.08,0.32-0.18,0.48-0.27c0.17-0.1,0.33-0.21,0.5-0.32c0.02-0.01,0.05-0.03,0.07-0.04c0.17-0.12,0.35-0.24,0.52-0.37
		c0.18-0.14,0.36-0.27,0.54-0.41c0.15-0.12,0.3-0.24,0.44-0.37c0.04-0.03,0.08-0.06,0.12-0.1c0.11-0.09,0.21-0.19,0.32-0.3
		c0,0,0,0,0,0c-0.02-0.02-0.03-0.04-0.04-0.06c0.04-0.03,0.09-0.06,0.13-0.1c0.09-0.07,0.18-0.15,0.27-0.23
		c0.02-0.03,0.05-0.04,0.07-0.06c0.01-0.01,0.02-0.02,0.03-0.03c0.01,0,0.01,0.01,0.02,0.02c0.08,0.08,0.16,0.16,0.24,0.23
		c0.07,0.07,0.15,0.14,0.22,0.21c0.09,0.08,0.17,0.16,0.26,0.24c0.04,0.03,0.08,0.06,0.12,0.1c0.15,0.13,0.3,0.25,0.44,0.37
		c0.18,0.14,0.36,0.28,0.54,0.41c0.17,0.13,0.35,0.25,0.52,0.37c0.02,0.02,0.05,0.03,0.07,0.05c0.17,0.11,0.33,0.22,0.5,0.32
		c0.16,0.09,0.32,0.19,0.48,0.27c0.16,0.09,0.33,0.17,0.5,0.25c0.21,0.11,0.44,0.22,0.66,0.31c0.19,0.08,0.39,0.16,0.58,0.23
		c0.2,0.07,0.39,0.14,0.59,0.2c0.16,0.05,0.33,0.1,0.49,0.14c0.23,0.06,0.47,0.12,0.7,0.16c0.11,0.02,0.22,0.04,0.34,0.06
		c0.17,0.03,0.33,0.06,0.49,0.08c0.32,0.05,0.65,0.07,0.97,0.09c2.27,0.1,4.54-0.48,6.64-1.69C41.66,35.18,42.62,36.94,42.62,36.94z
		"/>
	
		<linearGradient id="SVGID_2_" gradientUnits="userSpaceOnUse" x1="284.4761" y1="-301.7466" x2="305.263" y2="-301.7466" gradientTransform="matrix(1 0 0 -1 -281 -271)">
		<stop  offset="1.438503e-07" style="stop-color:#7A7777"/>
		<stop  offset="0.3674" style="stop-color:#A4A08C"/>
		<stop  offset="1" style="stop-color:#F4EFB3"/>
	</linearGradient>
	<path class="st1" d="M24.26,31.64c-0.11,0.1-0.21,0.2-0.32,0.3c-0.04,0.03-0.08,0.07-0.12,0.1c-0.15,0.13-0.3,0.25-0.44,0.37
		c-0.18,0.14-0.36,0.28-0.54,0.41c-0.17,0.13-0.35,0.25-0.52,0.37c-0.02,0.01-0.05,0.03-0.07,0.04c-0.17,0.11-0.33,0.22-0.5,0.32
		c-0.16,0.09-0.32,0.19-0.48,0.27c-0.16,0.09-0.33,0.18-0.5,0.25c-0.21,0.11-0.44,0.21-0.66,0.3c-0.19,0.08-0.39,0.16-0.58,0.23
		c-0.2,0.08-0.39,0.14-0.59,0.2c-0.16,0.05-0.33,0.1-0.49,0.14c-0.23,0.06-0.47,0.11-0.7,0.16c-0.11,0.03-0.22,0.05-0.34,0.06
		c-0.17,0.03-0.33,0.06-0.49,0.08c-0.32,0.05-0.65,0.08-0.97,0.09c-2.27,0.1-4.54-0.48-6.64-1.69c-2.2-1.27-4.21-3.24-5.85-5.91
		c0,0,1.43-1.04,3.36-1.59c1.51,2.31,3.38,4.14,5.46,5.36c1.4,0.83,2.89,1.37,4.44,1.61c1.7,0.27,3.46,0.15,5.22-0.4c0,0,0,0,0.01,0
		c0.01,0,0.01,0,0.01-0.01c0.01,0,0.01,0,0.02,0c0.01,0,0.02-0.01,0.04-0.01c0,0,0,0,0.01,0c0.02-0.01,0.05-0.02,0.07-0.02
		c0.07-0.02,0.14-0.04,0.21-0.07c0,0,0.01,0,0.01,0c0.1-0.03,0.2-0.07,0.31-0.11c0.05-0.02,0.09-0.04,0.14-0.06
		c0.02-0.01,0.04-0.02,0.07-0.03c0.06-0.03,0.12-0.05,0.17-0.08c0.06-0.02,0.11-0.05,0.16-0.08c0.02-0.01,0.03-0.02,0.05-0.02
		c0.03-0.02,0.07-0.03,0.1-0.05l0.01,0c0,0,0,0,0.01,0c0.02-0.01,0.05-0.03,0.07-0.04c0.03-0.01,0.06-0.03,0.09-0.05
		c0.04-0.02,0.07-0.04,0.11-0.06c0.05-0.03,0.1-0.06,0.15-0.1c0.02-0.01,0.03-0.01,0.04-0.03c0.01,0,0.01-0.01,0.01-0.01
		c0.04-0.03,0.07-0.05,0.11-0.08c0.06-0.03,0.12-0.08,0.17-0.12c0.01-0.01,0.02-0.02,0.03-0.03c0.03-0.02,0.06-0.04,0.09-0.07
		C24.23,31.6,24.25,31.62,24.26,31.64z"/>
	
		<linearGradient id="SVGID_3_" gradientUnits="userSpaceOnUse" x1="4.2421" y1="-269.3517" x2="14.3377" y2="-269.3517" gradientTransform="matrix(0.4231 -0.9061 -0.9061 -0.4231 -235.7378 -79.5622)">
		<stop  offset="1.438503e-07" style="stop-color:#7A7777"/>
		<stop  offset="0.3674" style="stop-color:#A4A08C"/>
		<stop  offset="1" style="stop-color:#F4EFB3"/>
	</linearGradient>
	<path class="st2" d="M10.19,25.93c1.43,2.2,3.21,4.01,5.24,5.26c0.54,0.33,1.09,0.63,1.66,0.88c0.22,0.09,0.45,0.19,0.68,0.27
		c0.23,0.09,0.45,0.16,0.69,0.23c0.01,0,0.02,0.01,0.03,0.01c0.02,0.01,0.03,0.01,0.05,0.02c0,0,0.01-0.28,0.01-0.28h0l0.01,0.28
		c0.01,0,0.01,0,0.02,0.01c0.01,0,0.01,0,0.01,0c0.01,0,0.02,0.01,0.04,0.01c0,0,0,0,0.01,0c0.02,0,0.05,0.01,0.07,0.02
		c0.07,0.03,0.15,0.05,0.22,0.07c0.02,0.01,0.05,0.01,0.07,0.02c0.02,0,0.03,0.01,0.05,0.02c0.01,0,0.01-0.01,0.01-0.01h0
		c0,0,0.04,0.02,0.06,0.02c0.01,0,0.02,0.4,0.02,0.4h0.01l0.03-0.42h0.01c0,0,0.02,0.04,0.02,0.04c0.01,0,0.02,0,0.02,0
		s0.01,0,0.02,0c0.01,0,0.02,0.01,0.04,0c0,0,0,0,0.01,0c0.01,0,0.03,0,0.04,0.01c0.01,0,0.03,0.35,0.03,0.35h0
		c0,0,0.02-0.34,0.03-0.34c0.01,0,0.03-0.08,0.03-0.08h0c0,0,0.18,0.12,0.27,0.13c0.02,0,0.04,0,0.06,0.01c0.01,0,0.02,0,0.03,0
		c0.06,0,0.12,0.01,0.17,0.02c0.01,0,0.02,0,0.04,0c0.01,0,0.03,0,0.04,0c0.02,0,0.03,0,0.05,0c0.01,0,0.01,0,0.01,0
		c0.01,0,0.02,0,0.03,0c0,0,0.01,0,0.01,0c0.01,0,0.03,0.26,0.03,0.26h0.08c0,0,0.01-0.26,0.02-0.25c0.07,0,0.2-0.17,0.2-0.17h0
		c0,0,0.01,0.17,0.01,0.18c0.04,0,0.08-0.01,0.12,0c0.03,0,0.07,0,0.1,0c0.03,0,0.07,0,0.1,0c0.02,0,0.03,0,0.05,0
		c0.02,0,0.03,0,0.05,0c0.02,0,0.03,0,0.05,0c0.07,0,0.13-0.01,0.2-0.02c0.02-0.01,0.06,0.29,0.06,0.29h0.02c0,0,0.02-0.3,0.03-0.31
		c0.02,0,0.04,0,0.05-0.01c0.03-0.01,0.07-0.01,0.1-0.02c0.01,0,0.03,0,0.04,0c0.01,0,0.02,0,0.04-0.01c0.04,0,0.07-0.01,0.11-0.02
		c0.02,0,0.04-0.01,0.06-0.02c0.01,0,0.02,0,0.02,0c0.01,0,0.01,0,0.02-0.01c0.02,0,0.03-0.01,0.05-0.01
		c0.06-0.01,0.12-0.03,0.18-0.05c-1.76,0.54-3.52,0.66-5.22,0.4c-1.55-0.24-3.04-0.78-4.44-1.61c-2.07-1.22-3.94-3.05-5.46-5.36
		c-1.59-2.42-2.79-5.37-3.43-8.72c0,0,1.62-0.12,3.54,0.5C7.58,20.9,8.7,23.63,10.19,25.93z"/>
	
		<linearGradient id="SVGID_4_" gradientUnits="userSpaceOnUse" x1="5.8946" y1="-266.2805" x2="23.1987" y2="-266.2805" gradientTransform="matrix(0.4231 -0.9061 -0.9061 -0.4231 -235.7378 -79.5622)">
		<stop  offset="1.438503e-07" style="stop-color:#7A7777"/>
		<stop  offset="0.3674" style="stop-color:#A4A08C"/>
		<stop  offset="1" style="stop-color:#F4EFB3"/>
	</linearGradient>
	<path class="st3" d="M12.71,17.48c0.07,0.87,0.06,1.79-0.08,2.78c-0.13,0.92-0.17,1.82-0.12,2.71c0.01,0.14,0.02,0.3,0.03,0.44
		c0,0.03,0,0.06,0.01,0.08c0.01,0.16,0.02,0.3,0.05,0.45c0.02,0.16,0.04,0.32,0.07,0.47c0.01,0.05,0.02,0.12,0.03,0.17
		c0.02,0.09,0.03,0.18,0.05,0.26c0,0,0,0.01,0,0.02c0,0.01,0,0.02,0.01,0.03c0.02,0.08,0.03,0.18,0.06,0.27
		c0.02,0.1,0.04,0.2,0.07,0.3c0,0.02,0.01,0.04,0.01,0.06c0.03,0.12,0.06,0.24,0.09,0.35c0.02,0.05,0.03,0.11,0.05,0.17
		c0.03,0.11,0.07,0.21,0.1,0.32c0.01,0.04,0.02,0.08,0.04,0.12c0.02,0.05,0.03,0.09,0.05,0.14c0.03,0.08,0.06,0.16,0.08,0.25
		c0.04,0.12,0.08,0.23,0.13,0.35c0.01,0.02,0.02,0.04,0.02,0.05c0.02,0.03,0.03,0.07,0.04,0.11c0.01,0.03,0.02,0.05,0.03,0.06
		c0.02,0.05,0.04,0.1,0.06,0.14c0.01,0.02,0.02,0.05,0.03,0.07c0.01,0.03,0.02,0.05,0.03,0.07c0,0.01,0.01,0.01,0.01,0.02
		c0,0,0.01,0.01,0.01,0.02c0.01,0.03,0.02,0.05,0.03,0.07c0,0,0.01,0.01,0.01,0.02c0.02,0.06,0.05,0.12,0.08,0.18
		c0.03,0.06,0.06,0.13,0.1,0.19c0.07,0.13,0.14,0.25,0.21,0.38c0.02,0.05,0.05,0.09,0.08,0.14c0.03,0.05,0.07,0.11,0.1,0.16
		c0,0.01,0.01,0.01,0.01,0.02c0,0.01,0.01,0.02,0.02,0.03c0,0,0,0,0,0c0.01,0,0.01,0.01,0.01,0.01c0,0,0,0,0,0
		c0,0.01,0.01,0.02,0.01,0.02c0,0,0,0,0,0c0.01,0,0.01,0.01,0.01,0.02c0.04,0.06,0.08,0.13,0.12,0.19c0.03,0.05,0.06,0.09,0.09,0.14
		c0.01,0.01,0.01,0.02,0.02,0.03c0.01,0.02,0.02,0.03,0.02,0.04c0.02,0.03,0.04,0.05,0.06,0.08c0.02,0.02,0.03,0.04,0.05,0.06
		c0,0.01,0.01,0.01,0.01,0.02c0.01,0.02,0.02,0.04,0.04,0.05c0,0,0,0,0,0c0,0.01,0.01,0.02,0.02,0.02c0,0.01,0.01,0.01,0.01,0.02
		c0.01,0.01,0.01,0.02,0.02,0.03c0.02,0.02,0.03,0.04,0.05,0.06c0.02,0.02,0.02,0.03,0.04,0.05h0c0.01,0.02,0.02,0.03,0.04,0.05
		c0,0.01,0.01,0.01,0.02,0.02c0.01,0.01,0.02,0.02,0.02,0.03c0.02,0.03,0.05,0.07,0.08,0.11c0.03,0.04,0.05,0.07,0.08,0.09
		c0.02,0.03,0.05,0.05,0.07,0.08c0,0.01,0.01,0.02,0.02,0.02c0.01,0.02,0.02,0.03,0.04,0.04c0.02,0.03,0.04,0.05,0.07,0.08
		c0.02,0.02,0.03,0.03,0.05,0.05c0,0.01,0.01,0.01,0.02,0.02c0.02,0.03,0.05,0.05,0.07,0.08c0.02,0.02,0.04,0.04,0.07,0.06
		c0.06,0.06,0.11,0.12,0.17,0.19c0.02,0.02,0.04,0.03,0.06,0.05c0.02,0.01,0.03,0.03,0.04,0.05c0.02,0.02,0.05,0.04,0.07,0.06
		c0.02,0.01,0.03,0.03,0.05,0.04c0.02,0.02,0.03,0.03,0.05,0.05c0.04,0.03,0.08,0.07,0.12,0.11c0.02,0.02,0.05,0.04,0.07,0.06
		c0.02,0.01,0.03,0.03,0.05,0.04c0.01,0,0.01,0.01,0.02,0.02c0.02,0.01,0.03,0.03,0.05,0.05l0.01,0.01
		c0.01,0.01,0.02,0.02,0.03,0.03c0.03,0.03,0.07,0.05,0.1,0.08l0.02,0.01c0.04,0.04,0.09,0.07,0.13,0.1
		c0.03,0.03,0.07,0.05,0.1,0.08l0.06,0.04c0,0.01,0.01,0.01,0.02,0.01c0,0,0.01,0,0.01,0l0.01,0c0.01,0.01,0.02,0.02,0.03,0.03
		l0.05,0.03c0.02,0.01,0.02,0.02,0.04,0.03c0.02,0.01,0.03,0.03,0.05,0.04c0.02,0.01,0.04,0.03,0.06,0.04l0.05,0.03l-0.05,0.14
		c-0.57-0.25-1.12-0.54-1.66-0.88c-2.03-1.25-3.81-3.06-5.24-5.26c-1.49-2.3-2.61-5.03-3.25-7.99c-0.31-1.42-0.51-2.89-0.59-4.39
		C6.12,11.6,6.19,9.77,6.44,7.92C6.44,7.93,12.15,11.07,12.71,17.48z"/>
	
		<linearGradient id="SVGID_5_" gradientUnits="userSpaceOnUse" x1="305.7271" y1="-301.8003" x2="326.9315" y2="-301.8003" gradientTransform="matrix(1 0 0 -1 -281 -271)">
		<stop  offset="1.438503e-07" style="stop-color:#7A7777"/>
		<stop  offset="0.3674" style="stop-color:#A4A08C"/>
		<stop  offset="1" style="stop-color:#F4EFB3"/>
	</linearGradient>
	<path class="st4" d="M45.93,27.79c-1.64,2.66-3.65,4.63-5.85,5.91c-2.11,1.22-4.37,1.79-6.64,1.69c-0.32-0.02-0.65-0.04-0.97-0.09
		c-0.16-0.02-0.32-0.04-0.49-0.08c-0.11-0.02-0.23-0.04-0.34-0.06c-0.23-0.05-0.47-0.1-0.7-0.16c-0.16-0.04-0.33-0.09-0.49-0.14
		c-0.2-0.06-0.39-0.13-0.59-0.2c-0.19-0.07-0.39-0.15-0.58-0.23c-0.22-0.09-0.44-0.2-0.66-0.31c-0.17-0.08-0.33-0.16-0.5-0.25
		c-0.16-0.08-0.32-0.18-0.48-0.27c-0.17-0.1-0.33-0.21-0.5-0.32c-0.02-0.01-0.05-0.03-0.07-0.05c-0.17-0.12-0.35-0.24-0.52-0.37
		c-0.18-0.13-0.36-0.27-0.54-0.41c-0.15-0.12-0.3-0.24-0.44-0.37c-0.04-0.03-0.08-0.06-0.12-0.1c-0.08-0.08-0.17-0.16-0.26-0.24
		c-0.07-0.07-0.15-0.14-0.22-0.21c-0.08-0.08-0.16-0.16-0.24-0.23c-0.01-0.01-0.01-0.01-0.02-0.02c0.01,0,0.02-0.01,0.02-0.02
		c0,0,0.01,0,0.01,0.01c0.01,0,0.01,0.01,0.02,0.02c0.09,0.08,0.18,0.16,0.27,0.23c0.06,0.05,0.13,0.11,0.2,0.15
		c0.01,0,0.02,0.01,0.02,0.02c0.01,0.01,0.02,0.02,0.03,0.02c0.06,0.05,0.12,0.08,0.17,0.12c0.04,0.03,0.07,0.05,0.11,0.08
		c0,0,0.01,0,0.01,0.01c0.01,0.01,0.02,0.02,0.04,0.03c0.05,0.03,0.1,0.06,0.15,0.1c0.03,0.02,0.07,0.04,0.11,0.06
		c0.03,0.02,0.06,0.04,0.09,0.05c0.02,0.01,0.05,0.03,0.07,0.04c0.01,0,0.01,0,0.01,0l0.01,0.01c0.03,0.02,0.07,0.04,0.1,0.05
		c0.02,0,0.03,0.01,0.05,0.02c0.05,0.04,0.11,0.06,0.16,0.08c0.06,0.03,0.12,0.05,0.17,0.08c0.02,0.02,0.05,0.03,0.07,0.03
		c0.04,0.02,0.09,0.04,0.14,0.06c0.1,0.04,0.2,0.08,0.31,0.11c0.01,0,0.01,0,0.01,0c0.07,0.03,0.14,0.05,0.21,0.06
		c0.02,0.01,0.05,0.02,0.07,0.03c0,0,0,0,0.01,0c0.01,0,0.02,0.01,0.04,0.01c0.01,0,0.01,0,0.02,0c0,0,0.01,0,0.01,0c0,0,0,0,0.01,0
		c1.76,0.54,3.52,0.66,5.22,0.4c1.55-0.24,3.04-0.78,4.44-1.61c2.07-1.22,3.94-3.05,5.46-5.36C44.5,26.75,45.93,27.79,45.93,27.79z"
		/>
	
		<linearGradient id="SVGID_6_" gradientUnits="userSpaceOnUse" x1="-103.614" y1="-38.1805" x2="-93.5183" y2="-38.1805" gradientTransform="matrix(-0.4231 -0.9061 0.9061 -0.4231 30.0473 -79.5622)">
		<stop  offset="1.438503e-07" style="stop-color:#7A7777"/>
		<stop  offset="0.3674" style="stop-color:#A4A08C"/>
		<stop  offset="1" style="stop-color:#F4EFB3"/>
	</linearGradient>
	<path class="st5" d="M39.22,25.85c-1.43,2.2-3.21,4.01-5.24,5.26c-0.54,0.33-1.09,0.63-1.66,0.88c-0.22,0.09-0.45,0.19-0.68,0.27
		c-0.23,0.09-0.45,0.16-0.69,0.23c-0.01,0-0.02,0.01-0.03,0.01c-0.02,0.01-0.03,0.01-0.05,0.02c0,0-0.01,0.23-0.01,0.23h0
		l-0.01-0.22c-0.01,0-0.01,0-0.02,0.01s-0.01,0-0.01,0c-0.01,0-0.02,0.01-0.04,0.01c0,0,0,0-0.01,0c-0.02,0-0.05,0.01-0.07,0.02
		c-0.07,0.03-0.15,0.05-0.22,0.07c-0.02,0.01-0.05,0.01-0.07,0.02c-0.02,0-0.03,0.01-0.05,0.02c-0.01,0-0.01,0.07-0.01,0.07h0
		c0,0-0.04-0.06-0.06-0.06c-0.01,0-0.02-0.36-0.02-0.36h-0.01l-0.03,0.42h-0.01c0,0-0.02-0.04-0.02-0.04c-0.01,0-0.02,0-0.02,0
		s-0.01,0-0.02,0c-0.01,0-0.02,0.01-0.04,0c0,0,0,0-0.01,0c-0.01,0-0.03,0-0.04,0.01c-0.01,0-0.03,0.01-0.03,0.01h0
		c0,0-0.02,0-0.03,0c-0.01,0-0.03,0.42-0.03,0.42h0c0,0-0.18-0.39-0.27-0.37c-0.02,0-0.04,0-0.06,0.01c-0.01,0-0.02,0-0.03,0
		c-0.06,0-0.12,0.01-0.17,0.02c-0.01,0-0.02,0-0.04,0c-0.01,0-0.03,0-0.04,0c-0.02,0-0.03,0-0.05,0c-0.01,0-0.01,0-0.01,0
		c-0.01,0-0.02,0-0.03,0c0,0-0.01,0-0.01,0c-0.01,0-0.03-0.08-0.03-0.08h-0.08c0,0-0.01,0.09-0.02,0.09c-0.07,0-0.2,0.33-0.2,0.33h0
		c0,0-0.01-0.33-0.01-0.32c-0.04,0-0.08-0.01-0.12,0c-0.03,0-0.07,0-0.1,0c-0.03,0-0.07,0-0.1,0c-0.02,0-0.03,0-0.05,0
		c-0.02,0-0.03,0-0.05,0c-0.02,0-0.03,0-0.05,0c-0.07,0-0.13-0.01-0.2-0.02c-0.02-0.01-0.06-0.05-0.06-0.05h-0.02
		c0,0-0.02,0.04-0.03,0.03c-0.02,0-0.04,0-0.05-0.01c-0.03-0.01-0.07-0.01-0.1-0.02c-0.01,0-0.03,0-0.04,0c-0.01,0-0.02,0-0.04-0.01
		c-0.04,0-0.07-0.01-0.11-0.02c-0.02,0-0.04-0.01-0.06-0.02c-0.01,0-0.02,0-0.02,0c-0.01,0-0.01,0-0.02-0.01
		c-0.02,0-0.03-0.01-0.05-0.01c-0.06-0.01-0.12-0.03-0.18-0.05c1.76,0.54,3.52,0.66,5.22,0.4c1.55-0.24,3.04-0.78,4.44-1.61
		c2.07-1.22,3.94-3.05,5.46-5.36c1.59-2.42,2.79-5.37,3.43-8.72c0,0-1.62-0.12-3.54,0.5C41.82,20.82,40.71,23.55,39.22,25.85z"/>
	
		<linearGradient id="SVGID_7_" gradientUnits="userSpaceOnUse" x1="-101.9267" y1="-35.3733" x2="-84.6225" y2="-35.3733" gradientTransform="matrix(-0.4231 -0.9061 0.9061 -0.4231 30.0473 -79.5622)">
		<stop  offset="1.438503e-07" style="stop-color:#7A7777"/>
		<stop  offset="0.3674" style="stop-color:#A4A08C"/>
		<stop  offset="1" style="stop-color:#F4EFB3"/>
	</linearGradient>
	<path class="st6" d="M36.44,17.48c-0.07,0.87-0.06,1.79,0.08,2.78c0.13,0.92,0.17,1.82,0.12,2.71c-0.01,0.14-0.02,0.3-0.03,0.44
		c0,0.03,0,0.06-0.01,0.08c-0.01,0.16-0.02,0.3-0.05,0.45c-0.02,0.16-0.04,0.32-0.07,0.47c-0.01,0.05-0.02,0.12-0.03,0.17
		c-0.02,0.09-0.03,0.18-0.05,0.26c0,0,0,0.01,0,0.02c0,0.01,0,0.02-0.01,0.03c-0.02,0.08-0.03,0.18-0.06,0.27
		c-0.02,0.1-0.04,0.2-0.07,0.3c0,0.02-0.01,0.04-0.01,0.06c-0.03,0.12-0.06,0.24-0.09,0.35c-0.02,0.05-0.03,0.11-0.05,0.17
		c-0.03,0.11-0.07,0.21-0.1,0.32c-0.01,0.04-0.02,0.08-0.04,0.12c-0.02,0.05-0.03,0.09-0.05,0.14c-0.03,0.08-0.06,0.16-0.08,0.25
		c-0.04,0.12-0.08,0.23-0.13,0.35c-0.01,0.02-0.02,0.04-0.02,0.05c-0.02,0.03-0.03,0.07-0.04,0.11c-0.01,0.03-0.02,0.05-0.03,0.06
		c-0.02,0.05-0.04,0.1-0.06,0.14c-0.01,0.02-0.02,0.05-0.03,0.07s-0.02,0.05-0.03,0.07c0,0.01-0.01,0.01-0.01,0.02
		c0,0-0.01,0.01-0.01,0.02c-0.01,0.03-0.02,0.05-0.03,0.07c0,0-0.01,0.01-0.01,0.02c-0.02,0.06-0.05,0.12-0.08,0.18
		c-0.03,0.06-0.06,0.13-0.1,0.19c-0.07,0.13-0.14,0.25-0.21,0.38c-0.02,0.05-0.05,0.09-0.08,0.14c-0.03,0.05-0.07,0.11-0.1,0.16
		c0,0.01-0.01,0.01-0.01,0.02c0,0.01-0.01,0.02-0.02,0.03c0,0,0,0,0,0c-0.01,0-0.01,0.01-0.01,0.01c0,0,0,0,0,0
		c0,0.01-0.01,0.02-0.01,0.02c0,0,0,0,0,0c-0.01,0-0.01,0.01-0.01,0.02c-0.04,0.06-0.08,0.13-0.12,0.19
		c-0.03,0.05-0.06,0.09-0.09,0.14c-0.01,0.01-0.01,0.02-0.02,0.03c-0.01,0.02-0.02,0.03-0.02,0.04c-0.02,0.03-0.04,0.05-0.06,0.08
		c-0.02,0.02-0.03,0.04-0.05,0.06c0,0.01-0.01,0.01-0.01,0.02c-0.01,0.02-0.02,0.04-0.04,0.05c0,0,0,0,0,0
		c0,0.01-0.01,0.02-0.02,0.02c0,0.01-0.01,0.01-0.01,0.02c-0.01,0.01-0.01,0.02-0.02,0.03c-0.02,0.02-0.03,0.04-0.05,0.06
		c-0.02,0.02-0.02,0.03-0.04,0.05h0c-0.01,0.02-0.02,0.03-0.04,0.05c0,0.01-0.01,0.01-0.02,0.02c-0.01,0.01-0.02,0.02-0.02,0.03
		c-0.02,0.03-0.05,0.07-0.08,0.11c-0.03,0.04-0.05,0.07-0.08,0.09c-0.02,0.03-0.05,0.05-0.07,0.08c0,0.01-0.01,0.02-0.02,0.02
		c-0.01,0.02-0.02,0.03-0.04,0.04c-0.02,0.03-0.04,0.05-0.07,0.08c-0.02,0.02-0.03,0.03-0.05,0.05c0,0.01-0.01,0.01-0.02,0.02
		c-0.02,0.03-0.05,0.05-0.07,0.08c-0.02,0.02-0.04,0.04-0.07,0.06c-0.06,0.06-0.11,0.12-0.17,0.19c-0.02,0.02-0.04,0.03-0.06,0.05
		c-0.02,0.01-0.03,0.03-0.04,0.05c-0.02,0.02-0.05,0.04-0.07,0.06c-0.02,0.01-0.03,0.03-0.05,0.04c-0.02,0.02-0.03,0.03-0.05,0.05
		c-0.04,0.03-0.08,0.07-0.12,0.11c-0.02,0.02-0.05,0.04-0.07,0.06c-0.02,0.01-0.03,0.03-0.05,0.04c-0.01,0-0.01,0.01-0.02,0.02
		c-0.02,0.01-0.03,0.03-0.05,0.05l-0.01,0.01c-0.01,0.01-0.02,0.02-0.03,0.03c-0.03,0.03-0.07,0.05-0.1,0.08l-0.02,0.01
		c-0.04,0.04-0.09,0.07-0.13,0.1c-0.03,0.03-0.07,0.05-0.1,0.08l-0.06,0.04c0,0.01-0.01,0.01-0.02,0.01c0,0-0.01,0-0.01,0l-0.01,0
		c-0.01,0.01-0.02,0.02-0.03,0.03l-0.05,0.03c-0.02,0.01-0.02,0.02-0.04,0.03c-0.02,0.01-0.03,0.03-0.05,0.04
		c-0.02,0.01-0.04,0.03-0.06,0.04l-0.05,0.03l0.05,0.14c0.57-0.25,1.12-0.54,1.66-0.88c2.03-1.25,3.81-3.06,5.24-5.26
		c1.49-2.3,2.61-5.03,3.25-7.99c0.31-1.42,0.51-2.89,0.59-4.39c0.09-1.79,0.02-3.62-0.23-5.47C42.72,7.93,37.01,11.06,36.44,17.48z"
		/>
	
		<linearGradient id="SVGID_8_" gradientUnits="userSpaceOnUse" x1="300.9829" y1="-302.5682" x2="300.9829" y2="-302.5682" gradientTransform="matrix(1 0 0 -1 -281 -271)">
		<stop  offset="1.438503e-07" style="stop-color:#7A7777"/>
		<stop  offset="0.332" style="stop-color:#A3A1A1"/>
		<stop  offset="1" style="stop-color:#FFFFFF"/>
	</linearGradient>
	<path class="st7" d="M19.98,31.57"/>
	
		<linearGradient id="SVGID_9_" gradientUnits="userSpaceOnUse" x1="300.3599" y1="-278.5205" x2="300.3599" y2="-278.5205" gradientTransform="matrix(1 0 0 -1 -281 -271)">
		<stop  offset="1.438503e-07" style="stop-color:#7A7777"/>
		<stop  offset="0.332" style="stop-color:#A3A1A1"/>
		<stop  offset="1" style="stop-color:#FFFFFF"/>
	</linearGradient>
	<path class="st8" d="M19.36,7.52"/>
</g>
</svg>
